<?xml version="1.0" ?><svg data-name="Layer 1" id="Layer_1" viewBox="0 0 128 128" xmlns="http://www.w3.org/2000/svg"><title/><path d="M36,100a28,28,0,0,0,39.37,25.6,2,2,0,0,0-1.62-3.66,24,24,0,1,1,10.7-9.35,2,2,0,0,0,3.4,2.1A28,28,0,0,0,66,72.08V65.53l.26.46a2,2,0,0,0,3.47-2l-4-7a2,2,0,0,0-3.47,0l-4,7a2,2,0,0,0,3.47,2l.26-.46v6.55A28,28,0,0,0,36,100Z"/><path d="M76,111H52a2,2,0,0,0,0,4H76a2,2,0,0,0,0-4Z"/><path d="M76,103H52a2,2,0,0,0,0,4H76a2,2,0,0,0,0-4Z"/><path d="M76,95H52a2,2,0,0,0,0,4H76a2,2,0,0,0,0-4Z"/><path d="M76,87H52a2,2,0,0,0,0,4H76a2,2,0,0,0,0-4Z"/><path d="M122,0H102a6,6,0,0,0-6,6V46a6,6,0,0,0,6,6h20a6,6,0,0,0,6-6V6A6,6,0,0,0,122,0Zm2,46a2,2,0,0,1-2,2H102a2,2,0,0,1-2-2V6a2,2,0,0,1,2-2h20a2,2,0,0,1,2,2Z"/><path d="M74,52a6,6,0,0,0,6-6V6a6,6,0,0,0-6-6H54a6,6,0,0,0-6,6V46a6,6,0,0,0,6,6ZM52,46V6a2,2,0,0,1,2-2H74a2,2,0,0,1,2,2V46a2,2,0,0,1-2,2H54A2,2,0,0,1,52,46Z"/><path d="M6,52H26a6,6,0,0,0,6-6V6a6,6,0,0,0-6-6H6A6,6,0,0,0,0,6V46A6,6,0,0,0,6,52ZM4,6A2,2,0,0,1,6,4H26a2,2,0,0,1,2,2V46a2,2,0,0,1-2,2H6a2,2,0,0,1-2-2Z"/><path d="M18.26,66a2,2,0,0,0,3.47-2l-4-7a2,2,0,0,0-3.47,0l-4,7a2,2,0,0,0,3.47,2l.26-.46V96a6.14,6.14,0,0,0,6.27,6H30a2,2,0,0,0,0-4H20.27A2.15,2.15,0,0,1,18,96V65.53Z"/><path d="M107.73,98H98a2,2,0,0,0,0,4h9.73A6.14,6.14,0,0,0,114,96V65.53l.26.46a2,2,0,0,0,3.47-2l-4-7a2,2,0,0,0-3.47,0l-4,7a2,2,0,0,0,3.47,2l.26-.46V96A2.15,2.15,0,0,1,107.73,98Z"/><path d="M14,46h4a2,2,0,0,0,0-4H14a2,2,0,0,0,0,4Z"/><circle cx="16" cy="8" r="2"/><circle cx="81.33" cy="119.33" r="2"/><path d="M62,46h4a2,2,0,0,0,0-4H62a2,2,0,0,0,0,4Z"/><circle cx="64" cy="8" r="2"/><path d="M114,42h-4a2,2,0,0,0,0,4h4a2,2,0,0,0,0-4Z"/><circle cx="112" cy="8" r="2"/></svg>